<?xml version="1.0" encoding="UTF-8"?>
<svg version="1.1" xmlns="http://www.w3.org/2000/svg" width="80" height="80">
<path d="M0 0 C132 0 264 0 400 0 C400 132 400 264 400 400 C268 400 136 400 0 400 C0 268 0 136 0 0 Z " fill="#FEFEFE" transform="translate(0,0)"/>
<path d="M0 0 C12.89072567 -0.02254897 25.78143834 -0.04091389 38.67217922 -0.05181217 C44.65719266 -0.05704151 50.64219196 -0.06414008 56.62719727 -0.07543945 C62.39783429 -0.08626653 68.16845768 -0.09227645 73.93910408 -0.09487724 C76.14602943 -0.09673182 78.352954 -0.10035304 80.55987358 -0.10573006 C83.63946041 -0.1129381 86.71899014 -0.11399104 89.79858398 -0.11352539 C90.72071182 -0.11712067 91.64283966 -0.12071594 92.59291077 -0.12442017 C98.88594784 -0.11405216 98.88594784 -0.11405216 100 1 C100.08700342 2.63472882 100.10701063 4.27314055 100.09765625 5.91015625 C100.09443359 6.89951172 100.09121094 7.88886719 100.08789062 8.90820312 C100.07951172 9.94912109 100.07113281 10.99003906 100.0625 12.0625 C100.05798828 13.10728516 100.05347656 14.15207031 100.04882812 15.22851562 C100.03699927 17.81903454 100.01906319 20.40952422 100 23 C104.62 23 109.24 23 114 23 C114 30.26 114 37.52 114 45 C116.31 45.33 118.62 45.66 121 46 C121.99 48.475 121.99 48.475 123 51 C123.66 51 124.32 51 125 51 C125.18546266 64.04762432 125.32755977 77.09493446 125.41449738 90.14360905 C125.45622632 96.20290283 125.5128148 102.26129405 125.60351562 108.32006836 C125.69052032 114.1686278 125.73829139 120.0163199 125.75901794 125.86547661 C125.77378564 128.09549044 125.80262482 130.32545744 125.84584045 132.55510139 C125.90403677 135.68238517 125.91190837 138.80609865 125.90820312 141.93383789 C125.93696533 142.85309555 125.96572754 143.77235321 125.99536133 144.71946716 C125.94639705 148.54607964 125.72523974 151.02738425 123.39964294 154.14623165 C119.24827361 158.09436796 115.97641364 159.87504607 110.125 159.88647461 C108.17388306 159.91571266 108.17388306 159.91571266 106.18334961 159.94554138 C104.78889222 159.93188973 103.39444214 159.91747303 102 159.90234375 C100.55409507 159.91174109 99.10820714 159.92420643 97.66235352 159.93959045 C93.88089622 159.97167377 90.10065769 159.96242738 86.31915283 159.94421387 C82.4509167 159.93301546 78.58298589 159.96139822 74.71484375 159.98632812 C67.14298108 160.0293562 59.57196696 160.02867154 52 160 C52 160.66 52 161.32 52 162 C52.66 162 53.32 162 54 162 C55.6910985 163.64187132 57.35356199 165.31334727 59 167 C60.81315784 168.54483132 62.64682647 170.0659062 64.5 171.5625 C65.4178125 172.30628906 66.335625 173.05007813 67.28125 173.81640625 C69.11418669 175.28854937 70.9692055 176.73356076 72.84375 178.15234375 C73.5553125 178.76207031 74.266875 179.37179687 75 180 C75 180.66 75 181.32 75 182 C75.53367188 182.20882812 76.06734375 182.41765625 76.6171875 182.6328125 C79.94389138 184.54157702 82.45416136 187.16517102 85.125 189.875 C85.66253906 190.40480469 86.20007813 190.93460938 86.75390625 191.48046875 C89.42096829 194.16083285 91.44639446 196.55644134 93 200 C93.66 200.33 94.32 200.66 95 201 C95.5546875 203.1796875 95.5546875 203.1796875 95.875 205.875 C95.99617187 206.75929688 96.11734375 207.64359375 96.2421875 208.5546875 C96 211 96 211 94.1953125 212.796875 C87.7217507 216.34466332 79.5910673 212.81822546 73 211 C73 210.34 73 209.68 73 209 C72.13375 208.566875 72.13375 208.566875 71.25 208.125 C69.16666667 207.08333333 67.08333333 206.04166667 65 205 C65 204.34 65 203.68 65 203 C64.113125 202.9175 63.22625 202.835 62.3125 202.75 C58.51469512 201.89011965 56.90443535 200.53207185 54 198 C53.23171875 197.54625 52.4634375 197.0925 51.671875 196.625 C42.98077743 191.33918627 35.46847698 183.85285415 28 177 C24.51246956 178.67774293 21.33501388 180.67020964 18.09765625 182.78125 C11.22223564 186.77590778 4.65035585 186.40258074 -3.125 186.4375 C-4.3934375 186.47037109 -5.661875 186.50324219 -6.96875 186.53710938 C-17.80669197 186.59856162 -25.73237816 184.08653301 -34 177 C-34.93070313 176.57332031 -35.86140625 176.14664063 -36.8203125 175.70703125 C-44.78384281 171.43176989 -50.75325154 162.86134734 -55 155 C-55.56847656 154.01580078 -55.56847656 154.01580078 -56.1484375 153.01171875 C-58.6684321 148.40960095 -59.80445144 144.25536759 -60 139 C-60.0515625 137.78699219 -60.103125 136.57398438 -60.15625 135.32421875 C-60.44836334 125.13202995 -59.80551647 115.70827471 -54 107 C-52.93445147 104.69131153 -51.97515873 102.34924603 -51 100 C-50.505 99.01 -50.505 99.01 -50 98 C-49.34 98 -48.68 98 -48 98 C-47.73574219 97.41089844 -47.47148438 96.82179688 -47.19921875 96.21484375 C-43.91938574 90.157302 -37.74965776 85.57997559 -32 82 C-30.68 82 -29.36 82 -28 82 C-28.04640625 81.11957031 -28.0928125 80.23914063 -28.140625 79.33203125 C-28.19476563 77.58986328 -28.19476563 77.58986328 -28.25 75.8125 C-28.29640625 74.66394531 -28.3428125 73.51539063 -28.390625 72.33203125 C-27.90300005 68.17259045 -27.17217582 66.73916409 -24 64 C-21.03 63.34 -18.06 62.68 -15 62 C-14.67 49.13 -14.34 36.26 -14 23 C-9.38 23 -4.76 23 0 23 C0 15.41 0 7.82 0 0 Z " fill="#ED862E" transform="translate(156,115)"/>
<path d="M0 0 C32.34 0 64.68 0 98 0 C98 6.93 98 13.86 98 21 C101.96 21 105.92 21 110 21 C109.98839844 19.81921875 109.97679687 18.6384375 109.96484375 17.421875 C109.95546248 15.86458492 109.94636264 14.30729312 109.9375 12.75 C109.92912109 11.97269531 109.92074219 11.19539062 109.91210938 10.39453125 C109.90888672 9.64042969 109.90566406 8.88632813 109.90234375 8.109375 C109.89710693 7.41811523 109.89187012 6.72685547 109.88647461 6.01464844 C110 4 110 4 111 0 C116.28 0 121.56 0 127 0 C127.0539507 3.41687783 127.09365049 6.83290364 127.125 10.25 C127.14175781 11.21808594 127.15851563 12.18617188 127.17578125 13.18359375 C127.18222656 14.11816406 127.18867188 15.05273438 127.1953125 16.015625 C127.20578613 16.87446289 127.21625977 17.73330078 127.22705078 18.61816406 C127 21 127 21 125 25 C125 17.74 125 10.48 125 3 C121.37 3.33 117.74 3.66 114 4 C113.67 10.27 113.34 16.54 113 23 C114.32 23.33 115.64 23.66 117 24 C118.72745228 25.32166004 118.72745228 25.32166004 120 27 C120.28075915 29.99888489 120.3786444 32.78766897 120.34057617 35.78588867 C120.34101425 36.68365524 120.34145233 37.58142181 120.34190369 38.50639343 C120.33981179 41.47713891 120.31646176 44.44732172 120.29296875 47.41796875 C120.28737422 49.47634065 120.28310345 51.53471655 120.28010559 53.59309387 C120.26864555 59.01340748 120.23916829 64.43348032 120.20599365 69.85369873 C120.1753178 75.38355248 120.16160556 80.91344509 120.14648438 86.44335938 C120.1142998 97.29567876 120.06308936 108.14781937 120 119 C121.32 119 122.64 119 124 119 C123.99777939 118.25275665 123.99555878 117.50551331 123.99327087 116.73562622 C123.97325405 109.70193391 123.95801874 102.66825142 123.94818783 95.63453865 C123.94296381 92.01822828 123.93587485 88.40194139 123.92456055 84.78564453 C123.91371462 81.29731896 123.90771953 77.80901602 123.90512276 74.3206749 C123.90236919 72.33862308 123.8945599 70.3565804 123.88670349 68.37454224 C123.88662796 67.17344818 123.88655243 65.97235413 123.88647461 64.73486328 C123.884254 63.67341095 123.88203339 62.61195862 123.87974548 61.51834106 C124 59 124 59 125 57 C125.99 57 126.98 57 128 57 C128 79.11 128 101.22 128 124 C125.03 124 122.06 124 119 124 C118.67 125.98 118.34 127.96 118 130 C122.95 129.67 127.9 129.34 133 129 C133 129.99 133 130.98 133 132 C109.57 132 86.14 132 62 132 C62.66 126.72 63.32 121.44 64 116 C64.16499903 112.66604906 64.29417559 109.44693133 64.25 106.125 C64.2344104 104.91807495 64.2344104 104.91807495 64.21850586 103.68676758 C63.87572471 87.3442209 57.01192432 76.20434234 45.52514648 64.85620117 C41.07145878 60.72311656 36.742885 58.69789644 31 57 C29.74230754 56.45491659 28.49136981 55.8937979 27.25 55.3125 C17.79789584 51.49530409 3.57493728 51.00845933 -5.875 55 C-6.59429687 55.37125 -7.31359375 55.7425 -8.0546875 56.125 C-10 57 -10 57 -14 57 C-14.6125393 46.33160718 -14.6125393 46.33160718 -12.5625 41.875 C-10 40 -10 40 -1 38 C-0.67 25.46 -0.34 12.92 0 0 Z " fill="#0E3C86" transform="translate(142,139)"/>
<path d="M0 0 C12.89072567 -0.02254897 25.78143834 -0.04091389 38.67217922 -0.05181217 C44.65719266 -0.05704151 50.64219196 -0.06414008 56.62719727 -0.07543945 C62.39783429 -0.08626653 68.16845768 -0.09227645 73.93910408 -0.09487724 C76.14602943 -0.09673182 78.352954 -0.10035304 80.55987358 -0.10573006 C83.63946041 -0.1129381 86.71899014 -0.11399104 89.79858398 -0.11352539 C90.72071182 -0.11712067 91.64283966 -0.12071594 92.59291077 -0.12442017 C98.88594784 -0.11405216 98.88594784 -0.11405216 100 1 C100.08700342 2.63472882 100.10701063 4.27314055 100.09765625 5.91015625 C100.09282227 7.39418945 100.09282227 7.39418945 100.08789062 8.90820312 C100.07532227 10.46958008 100.07532227 10.46958008 100.0625 12.0625 C100.05798828 13.10728516 100.05347656 14.15207031 100.04882812 15.22851562 C100.03699927 17.81903454 100.01906319 20.40952422 100 23 C104.62 23 109.24 23 114 23 C114 30.26 114 37.52 114 45 C116.31 45.33 118.62 45.66 121 46 C121.99 48.475 121.99 48.475 123 51 C123.66 51 124.32 51 125 51 C125.18546266 64.04762432 125.32755977 77.09493446 125.41449738 90.14360905 C125.45622632 96.20290283 125.5128148 102.26129405 125.60351562 108.32006836 C125.69052032 114.1686278 125.73829139 120.0163199 125.75901794 125.86547661 C125.77378564 128.09549044 125.80262482 130.32545744 125.84584045 132.55510139 C125.90403677 135.68238517 125.91190837 138.80609865 125.90820312 141.93383789 C125.93696533 142.85309555 125.96572754 143.77235321 125.99536133 144.71946716 C125.94639705 148.54607964 125.72523974 151.02738425 123.39964294 154.14623165 C119.24827361 158.09436796 115.97641364 159.87504607 110.125 159.88647461 C108.17388306 159.91571266 108.17388306 159.91571266 106.18334961 159.94554138 C104.78889222 159.93188973 103.39444214 159.91747303 102 159.90234375 C100.55409507 159.91174109 99.10820714 159.92420643 97.66235352 159.93959045 C93.88089622 159.97167377 90.10065769 159.96242738 86.31915283 159.94421387 C82.4509167 159.93301546 78.58298589 159.96139822 74.71484375 159.98632812 C67.14298108 160.0293562 59.57196696 160.02867154 52 160 C52 160.66 52 161.32 52 162 C52.66 162 53.32 162 54 162 C55.6910985 163.64187132 57.35356199 165.31334727 59 167 C60.81315784 168.54483132 62.64682647 170.0659062 64.5 171.5625 C65.4178125 172.30628906 66.335625 173.05007813 67.28125 173.81640625 C69.11418669 175.28854937 70.9692055 176.73356076 72.84375 178.15234375 C73.5553125 178.76207031 74.266875 179.37179687 75 180 C75 180.66 75 181.32 75 182 C75.80050781 182.31324219 75.80050781 182.31324219 76.6171875 182.6328125 C79.94389138 184.54157702 82.45416136 187.16517102 85.125 189.875 C85.66253906 190.40480469 86.20007813 190.93460938 86.75390625 191.48046875 C89.42096829 194.16083285 91.44639446 196.55644134 93 200 C93.66 200.33 94.32 200.66 95 201 C95.5546875 203.1796875 95.5546875 203.1796875 95.875 205.875 C95.99617188 206.75929688 96.11734375 207.64359375 96.2421875 208.5546875 C96 211 96 211 94.1953125 212.796875 C87.7217507 216.34466332 79.5910673 212.81822546 73 211 C73 210.34 73 209.68 73 209 C72.4225 208.71125 71.845 208.4225 71.25 208.125 C69.16666667 207.08333333 67.08333333 206.04166667 65 205 C65 204.34 65 203.68 65 203 C64.113125 202.9175 63.22625 202.835 62.3125 202.75 C58.51469512 201.89011965 56.90443535 200.53207185 54 198 C53.23300781 197.54753906 52.46601563 197.09507812 51.67578125 196.62890625 C43.38681086 191.5829199 36.17127226 184.49841215 29 178 C29.55171366 174.1552454 31.21462331 172.49126453 34 169.875 C36.89285588 167.22939276 36.89285588 167.22939276 39 164 C39.66 164 40.32 164 41 164 C41.0825 163.4225 41.165 162.845 41.25 162.25 C42 160 42 160 43.9375 158.125 C46.39795079 155.58999009 47.08043573 153.37173564 48 150 C49 152 49 152 48 156 C71.43 156 94.86 156 119 156 C118.67 155.34 118.34 154.68 118 154 C113.38 154 108.76 154 104 154 C104.495 151.03 104.495 151.03 105 148 C107.97 148 110.94 148 114 148 C114 125.89 114 103.78 114 81 C113.01 81 112.02 81 111 81 C110.67 101.46 110.34 121.92 110 143 C108.68 143 107.36 143 106 143 C105.99413376 141.85407883 105.98826752 140.70815765 105.98222351 139.5275116 C105.92507224 128.74137281 105.85235063 117.95543712 105.76428509 107.16950512 C105.71951002 101.62400444 105.6802697 96.07857845 105.65356445 90.53295898 C105.62760262 85.18361043 105.58725095 79.83454819 105.53681374 74.48537636 C105.52009673 72.44202542 105.50861266 70.39862491 105.50238609 68.35521507 C105.49279747 65.49846578 105.46480146 62.64245703 105.43237305 59.78588867 C105.43380814 58.93640656 105.43524323 58.08692444 105.4367218 57.21170044 C105.49945768 52.97512993 105.49945768 52.97512993 103.66257954 49.32166004 C101.92324898 47.78396935 101.92324898 47.78396935 99 47 C98.97111486 43.85418577 98.95324077 40.70840531 98.9375 37.5625 C98.92912109 36.66466797 98.92074219 35.76683594 98.91210938 34.84179688 C98.90888672 33.98779297 98.90566406 33.13378906 98.90234375 32.25390625 C98.89710693 31.46314697 98.89187012 30.6723877 98.88647461 29.85766602 C99 28 99 28 100 27 C103.6691577 26.85689713 107.32715441 26.95778338 111 27 C111.495 35.91 111.495 35.91 112 45 C112.33 38.07 112.66 31.14 113 24 C107.72 24 102.44 24 97 24 C96.67 30.93 96.34 37.86 96 45 C92.04 45 88.08 45 84 45 C84 38.07 84 31.14 84 24 C79.70681763 24.0611499 79.70681763 24.0611499 75.3269043 24.12353516 C65.88339969 24.25656349 56.43977504 24.37843452 46.99605083 24.49477577 C41.26884416 24.56567612 35.54173854 24.64036486 29.81469727 24.72363281 C24.29052617 24.80381307 18.76631035 24.87414476 13.24192238 24.93757248 C11.13150199 24.96354882 9.02112264 24.99310811 6.91080284 25.02626419 C3.96098911 25.0720052 1.01128811 25.10514524 -1.9387207 25.13525391 C-3.2550222 25.16006584 -3.2550222 25.16006584 -4.59791565 25.18537903 C-10.65784352 25.22810432 -10.65784352 25.22810432 -14 23 C-9.38 23 -4.76 23 0 23 C0 15.41 0 7.82 0 0 Z " fill="#3A5692" transform="translate(156,115)"/>
<path d="M0 0 C1.155 0.556875 2.31 1.11375 3.5 1.6875 C4.325 2.120625 5.15 2.55375 6 3 C6 3.66 6 4.32 6 5 C6.56847656 5.09152344 7.13695312 5.18304688 7.72265625 5.27734375 C14.51552387 7.43288493 19.67380392 14.34742536 23.22265625 20.23828125 C24 22 24 22 24 25 C24.66 25 25.32 25 26 25 C28.58216538 40.49299226 27.85049886 53.76295651 19 67 C17.37036807 68.62963193 15.53412952 68.15207928 13.28417969 68.17700195 C11.77691315 68.19625481 11.77691315 68.19625481 10.23919678 68.21589661 C9.14448059 68.22328354 8.0497644 68.23067047 6.921875 68.23828125 C5.24378754 68.25038887 5.24378754 68.25038887 3.53179932 68.26274109 C1.1577714 68.27660271 -1.21627663 68.28731552 -3.59033203 68.29516602 C-7.22076307 68.31236152 -10.85027978 68.35622834 -14.48046875 68.40039062 C-16.78384745 68.41051847 -19.08723392 68.41903429 -21.390625 68.42578125 C-22.47724426 68.44328934 -23.56386353 68.46079742 -24.68341064 68.47883606 C-32.22930283 68.45713873 -32.22930283 68.45713873 -36.10058594 66.16088867 C-39.38088808 62.42901794 -40.25309117 60.36989553 -40.29052734 55.47460938 C-40.30328705 54.34333618 -40.31604675 53.21206299 -40.32919312 52.04650879 C-40.33141876 50.82459839 -40.33364441 49.60268799 -40.3359375 48.34375 C-40.3425943 47.0899353 -40.3492511 45.83612061 -40.35610962 44.54431152 C-40.36624272 41.8912131 -40.37179073 39.23852442 -40.37060547 36.58544922 C-40.37040198 33.18548556 -40.3977345 29.78635503 -40.43214989 26.38658905 C-40.45972467 23.14317356 -40.45856674 19.89976688 -40.4609375 16.65625 C-40.47530853 15.4343396 -40.48967957 14.2124292 -40.50448608 12.95349121 C-40.49833282 11.82221802 -40.49217957 10.69094482 -40.48583984 9.52539062 C-40.4901149 8.03005798 -40.4901149 8.03005798 -40.49447632 6.5045166 C-40 4 -40 4 -38.10830688 2.21179199 C-35.92958717 0.9595288 -33.89746179 0.12215419 -31.5 -0.625 C-30.7471875 -0.86476562 -29.994375 -1.10453125 -29.21875 -1.3515625 C-28.4865625 -1.56554687 -27.754375 -1.77953125 -27 -2 C-26.39671875 -2.18820313 -25.7934375 -2.37640625 -25.171875 -2.5703125 C-16.74105414 -4.23828066 -7.70656891 -3.78322474 0 0 Z " fill="#0E3D87" transform="translate(168,205)"/>
<path d="M0 0 C29.7 0 59.4 0 90 0 C90 5.94 90 11.88 90 18 C81.09 18 72.18 18 63 18 C63 18.66 63 19.32 63 20 C61.35666496 21.03789581 59.68756133 22.03567924 58 23 C55.23776722 25.76223278 55.42143709 28.20706617 55 32 C54.34 32 53.68 32 53 32 C53 33.32 53 34.64 53 36 C39.14 36 25.28 36 11 36 C11 36.66 11 37.32 11 38 C6.43711531 38.21222719 4.44992574 37.77997029 0 36 C0 24.12 0 12.24 0 0 Z " fill="#A5C1F4" transform="translate(146,142)"/>
<path d="M0 0 C29.7 0 59.4 0 90 0 C90 13.53 90 27.06 90 41 C86.37 41 82.74 41 79 41 C79 34.07 79 27.14 79 20 C52.93 20 26.86 20 0 20 C0 13.4 0 6.8 0 0 Z " fill="#E4812F" transform="translate(161,119)"/>
<path d="M0 0 C0.00364563 0.69046921 0.00729126 1.38093842 0.01104736 2.09233093 C0.05285809 9.27893734 0.12219445 16.46490426 0.20751953 23.65112305 C0.23795509 26.33310425 0.25863532 29.01489752 0.27099609 31.69702148 C0.29240272 35.55235559 0.33904508 39.40668486 0.390625 43.26171875 C0.39185364 44.46084396 0.39308228 45.65996918 0.39434814 46.89543152 C0.4464396 53.37517685 0.4464396 53.37517685 2.91308594 59.23364258 C6.0369802 61.87769674 7.80070242 62.13468572 11.81689453 62.20532227 C12.81778107 62.22526749 13.8186676 62.24521271 14.84988403 62.26576233 C16.47493362 62.29083107 16.47493362 62.29083107 18.1328125 62.31640625 C19.79327103 62.3475779 19.79327103 62.3475779 21.48727417 62.37937927 C25.03311799 62.44490991 28.57903754 62.50377614 32.125 62.5625 C34.5247475 62.60568187 36.92448727 62.64929605 39.32421875 62.69335938 C45.21606513 62.80059488 51.10798731 62.90235472 57 63 C54.69664719 68.17978861 50.64100127 70.90599915 46 74 C45.01 74 44.02 74 43 74 C42.34 75.32 41.68 76.64 41 78 C39.02 78 37.04 78 35 78 C35 78.66 35 79.32 35 80 C31.33360752 80.11728126 27.6677048 80.18760891 24 80.25 C22.97003906 80.28351563 21.94007813 80.31703125 20.87890625 80.3515625 C14.17156878 80.43700629 9.67210569 79.58689891 4 76 C3.24589844 75.60296875 2.49179688 75.2059375 1.71484375 74.796875 C-3.60131337 71.66560003 -7.12657961 67.74630386 -11 63 C-11.54914063 62.40960938 -12.09828125 61.81921875 -12.6640625 61.2109375 C-13.18742187 60.64632812 -13.71078125 60.08171875 -14.25 59.5 C-14.70890625 59.0153125 -15.1678125 58.530625 -15.640625 58.03125 C-19.89626077 51.67225402 -20.47680407 45.48854149 -20.375 38.0625 C-20.38660156 37.22009766 -20.39820312 36.37769531 -20.41015625 35.50976562 C-20.38242712 29.50640828 -19.2099011 24.56233611 -17 19 C-16.7510498 18.35192383 -16.50209961 17.70384766 -16.24560547 17.03613281 C-14.89018077 13.67553168 -13.46545046 10.67983745 -11 8 C-10.34 8 -9.68 8 -9 8 C-8.731875 7.360625 -8.46375 6.72125 -8.1875 6.0625 C-7 4 -7 4 -4 3 C-4 2.34 -4 1.68 -4 1 C-2 0 -2 0 0 0 Z " fill="#FCFAF9" transform="translate(128,210)"/>
<path d="M0 0 C6.21888771 3.83047431 11.597252 8.15893496 16.93359375 13.14453125 C18.86329646 15.04198998 18.86329646 15.04198998 21 16 C21 16.66 21 17.32 21 18 C21.53367188 18.20882813 22.06734375 18.41765625 22.6171875 18.6328125 C25.94389138 20.54157702 28.45416136 23.16517102 31.125 25.875 C31.66253906 26.40480469 32.20007813 26.93460937 32.75390625 27.48046875 C35.42096829 30.16083285 37.44639446 32.55644134 39 36 C39.99 36.495 39.99 36.495 41 37 C41.5546875 39.1796875 41.5546875 39.1796875 41.875 41.875 C41.99617188 42.75929688 42.11734375 43.64359375 42.2421875 44.5546875 C42 47 42 47 40.1953125 48.796875 C33.7217507 52.34466332 25.5910673 48.81822546 19 47 C19 46.34 19 45.68 19 45 C18.4225 44.71125 17.845 44.4225 17.25 44.125 C15.16666667 43.08333333 13.08333333 42.04166667 11 41 C11 40.34 11 39.68 11 39 C10.113125 38.9175 9.22625 38.835 8.3125 38.75 C4.51469512 37.89011965 2.90443535 36.53207185 0 34 C-1.13501953 33.33291016 -1.13501953 33.33291016 -2.29296875 32.65234375 C-5.33177618 30.79748726 -7.99806672 28.69482905 -10.75 26.4375 C-11.71421875 25.65246094 -12.6784375 24.86742187 -13.671875 24.05859375 C-16 22 -16 22 -17 20 C-15.87970983 18.51726301 -14.75361382 17.03891114 -13.625 15.5625 C-12.99851563 14.73878906 -12.37203125 13.91507812 -11.7265625 13.06640625 C-10 11 -10 11 -8 10 C-7.54625 9.175 -7.0925 8.35 -6.625 7.5 C-5 5 -5 5 -2.8125 4.1875 C-2.214375 4.125625 -1.61625 4.06375 -1 4 C-0.67 2.68 -0.34 1.36 0 0 Z " fill="#F1882D" transform="translate(210,279)"/>
<path d="M0 0 C3.63 0 7.26 0 11 0 C11 15.84 11 31.68 11 48 C11.99 48 12.98 48 14 48 C14 39.75 14 31.5 14 23 C15.32 23 16.64 23 18 23 C20.02539124 26.03808686 20.25082897 26.61683724 20.26069641 30.02307129 C20.26778122 30.83903275 20.27486603 31.6549942 20.28216553 32.49568176 C20.27968811 33.38720444 20.27721069 34.27872711 20.2746582 35.19726562 C20.2823246 36.60983894 20.2823246 36.60983894 20.29014587 38.0509491 C20.30406682 41.16944704 20.30308339 44.28772464 20.30078125 47.40625 C20.30466645 49.56954023 20.30900075 51.7328297 20.31376648 53.89611816 C20.32123382 58.43223544 20.32093342 62.96827488 20.31567383 67.50439453 C20.3098748 73.32550439 20.32681833 79.14629652 20.3500185 84.96735382 C20.36472844 89.43509798 20.36563134 93.9027651 20.36250877 98.37052917 C20.36302324 100.51719289 20.36828439 102.66386078 20.37832069 104.8105011 C20.39061634 107.80812424 20.38393503 110.80512174 20.37231445 113.80273438 C20.38378006 115.14001839 20.38378006 115.14001839 20.39547729 116.50431824 C20.38846298 117.32027969 20.38144867 118.13624115 20.3742218 118.97692871 C20.37438954 119.68557823 20.37455729 120.39422775 20.37473011 121.1243515 C19.88264034 123.58742402 18.96948929 124.48351945 17 126 C14.30078125 126.29296875 14.30078125 126.29296875 11.3125 126.1875 C10.31863281 126.16042969 9.32476562 126.13335937 8.30078125 126.10546875 C7.54152344 126.07066406 6.78226562 126.03585937 6 126 C6 124.35 6 122.7 6 121 C8.64 121 11.28 121 14 121 C14 98.89 14 76.78 14 54 C13.01 54 12.02 54 11 54 C10.67 74.46 10.34 94.92 10 116 C8.68 116 7.36 116 6 116 C5.99413376 114.85407883 5.98826752 113.70815765 5.98222351 112.5275116 C5.92507224 101.74137281 5.85235063 90.95543712 5.76428509 80.16950512 C5.71951002 74.62400444 5.6802697 69.07857845 5.65356445 63.53295898 C5.62760262 58.18361043 5.58725095 52.83454819 5.53681374 47.48537636 C5.52009673 45.44202542 5.50861266 43.39862491 5.50238609 41.35521507 C5.49279747 38.49846578 5.46480146 35.64245703 5.43237305 32.78588867 C5.43380814 31.93640656 5.43524323 31.08692444 5.4367218 30.21170044 C5.49945768 25.97512993 5.49945768 25.97512993 3.66257954 22.32166004 C1.92324898 20.78396935 1.92324898 20.78396935 -1 20 C-1.02888514 16.85418577 -1.04675923 13.70840531 -1.0625 10.5625 C-1.07087891 9.66466797 -1.07925781 8.76683594 -1.08789062 7.84179688 C-1.09111328 6.98779297 -1.09433594 6.13378906 -1.09765625 5.25390625 C-1.10551147 4.06776733 -1.10551147 4.06776733 -1.11352539 2.85766602 C-1 1 -1 1 0 0 Z " fill="#DF7F35" transform="translate(256,142)"/>
<path d="M0 0 C17.82 0 35.64 0 54 0 C54 7.59 54 15.18 54 23 C46.63086786 23.04583427 39.26222737 23.08568307 31.89306641 23.10986328 C29.38458585 23.11994011 26.87611708 23.13360179 24.36767578 23.15087891 C20.76852512 23.17505337 17.16952933 23.18646612 13.5703125 23.1953125 C12.44319855 23.20563507 11.31608459 23.21595764 10.15481567 23.22659302 C9.11388763 23.22674408 8.07295959 23.22689514 7.00048828 23.22705078 C6.08115509 23.231492 5.1618219 23.23593323 4.21463013 23.24050903 C2 23 2 23 0 21 C0 14.07 0 7.14 0 0 Z " fill="#D67B2F" transform="translate(197,190)"/>
<path d="M0 0 C0.495 0.99 0.495 0.99 1 2 C1.66 2 2.32 2 3 2 C3.18546266 15.04762432 3.32755977 28.09493446 3.41449738 41.14360905 C3.45622632 47.20290283 3.5128148 53.26129405 3.60351562 59.32006836 C3.69052032 65.1686278 3.73829139 71.0163199 3.75901794 76.86547661 C3.77378564 79.09549044 3.80262482 81.32545744 3.84584045 83.55510139 C3.90403677 86.68238517 3.91190837 89.80609865 3.90820312 92.93383789 C3.95134644 94.31272438 3.95134644 94.31272438 3.99536133 95.71946716 C3.94639705 99.54607964 3.72523974 102.02738425 1.39964294 105.14623165 C-2.75172639 109.09436796 -6.02358636 110.87504607 -11.875 110.88647461 C-13.17574463 110.90596664 -14.47648926 110.92545868 -15.81665039 110.94554138 C-17.21110778 110.93188973 -18.60555786 110.91747303 -20 110.90234375 C-21.44590493 110.91174109 -22.89179286 110.92420643 -24.33764648 110.93959045 C-28.11910378 110.97167377 -31.89934231 110.96242738 -35.68084717 110.94421387 C-39.5490833 110.93301546 -43.41701411 110.96139822 -47.28515625 110.98632812 C-54.85701892 111.0293562 -62.42803304 111.02867154 -70 111 C-70 111.66 -70 112.32 -70 113 C-69.34 113 -68.68 113 -68 113 C-68.1875 115.8125 -68.1875 115.8125 -69 119 C-71.4375 120.625 -71.4375 120.625 -74 122 C-74.70151152 123.3153341 -75.36525925 124.65117592 -76 126 C-77.6454378 127.68762851 -79.31288577 129.3540349 -81 131 C-82.02813611 132.31175986 -83.04084432 133.6369893 -84 135 C-88.25219775 134.52753358 -90.37314725 132.22727623 -93 129 C-92.77331157 125.17756414 -90.69314506 123.40463268 -88 120.875 C-85.10714412 118.22939276 -85.10714412 118.22939276 -83 115 C-82.34 115 -81.68 115 -81 115 C-80.9175 114.4225 -80.835 113.845 -80.75 113.25 C-80 111 -80 111 -78.0625 109.125 C-75.60204921 106.58999009 -74.91956427 104.37173564 -74 101 C-73 103 -73 103 -74 107 C-50.57 107 -27.14 107 -3 107 C-3.33 106.34 -3.66 105.68 -4 105 C-8.62 105 -13.24 105 -18 105 C-17.67 103.02 -17.34 101.04 -17 99 C-16.67 99 -16.34 99 -16 99 C-16 100.65 -16 102.3 -16 104 C-14.20759337 103.88610125 -12.41605165 103.75852313 -10.625 103.625 C-9.62726563 103.55539062 -8.62953125 103.48578125 -7.6015625 103.4140625 C-4.84491121 103.23636036 -4.84491121 103.23636036 -3 101 C-2.78196883 97.95819641 -2.68853762 95.00483428 -2.68115234 91.96044922 C-2.67110672 91.02381439 -2.6610611 90.08717957 -2.65071106 89.12216187 C-2.61974113 86.01634351 -2.60280565 82.91061187 -2.5859375 79.8046875 C-2.56723695 77.65519456 -2.54766439 75.50570905 -2.5272522 73.35623169 C-2.47580735 67.69110481 -2.43624786 62.0259541 -2.39910889 56.36071777 C-2.35914651 50.58286585 -2.30801884 44.80511413 -2.2578125 39.02734375 C-2.16090702 27.68496609 -2.0765492 16.34253202 -2 5 C-1.34 5 -0.68 5 0 5 C0 36.68 0 68.36 0 101 C0.66 101 1.32 101 2 101 C2 68.99 2 36.98 2 4 C1.34 4 0.68 4 0 4 C0 2.68 0 1.36 0 0 Z " fill="#28498B" transform="translate(278,164)"/>
<path d="M0 0 C1.32 0 2.64 0 4 0 C6.02539124 3.03808686 6.25082897 3.61683724 6.26069641 7.02307129 C6.26778122 7.83903275 6.27486603 8.6549942 6.28216553 9.49568176 C6.27968811 10.38720444 6.27721069 11.27872711 6.2746582 12.19726562 C6.27976913 13.13898117 6.28488007 14.08069672 6.29014587 15.0509491 C6.30406682 18.16944704 6.30308339 21.28772464 6.30078125 24.40625 C6.30466645 26.56954023 6.30900075 28.7328297 6.31376648 30.89611816 C6.32123382 35.43223544 6.32093342 39.96827488 6.31567383 44.50439453 C6.3098748 50.32550439 6.32681833 56.14629652 6.3500185 61.96735382 C6.36472844 66.43509798 6.36563134 70.9027651 6.36250877 75.37052917 C6.36302324 77.51719289 6.36828439 79.66386078 6.37832069 81.8105011 C6.39061634 84.80812424 6.38393503 87.80512174 6.37231445 90.80273438 C6.37995819 91.69425705 6.38760193 92.58577972 6.39547729 93.50431824 C6.38846298 94.32027969 6.38144867 95.13624115 6.3742218 95.97692871 C6.37438954 96.68557823 6.37455729 97.39422775 6.37473011 98.1243515 C5.88264034 100.58742402 4.96948929 101.48351945 3 103 C0.30078125 103.29296875 0.30078125 103.29296875 -2.6875 103.1875 C-3.68136719 103.16042969 -4.67523438 103.13335937 -5.69921875 103.10546875 C-6.45847656 103.07066406 -7.21773438 103.03585937 -8 103 C-8 101.35 -8 99.7 -8 98 C-5.36 98 -2.72 98 0 98 C0 75.56 0 53.12 0 30 C-0.99 29.67 -1.98 29.34 -3 29 C-1.68 27.68 -0.36 26.36 1 25 C0.67 25 0.34 25 0 25 C0 16.75 0 8.5 0 0 Z " fill="#E3812F" transform="translate(270,165)"/>
<path d="M0 0 C1.36560059 0.00303635 1.36560059 0.00303635 2.75878906 0.00613403 C3.68723633 0.00517731 4.61568359 0.00422058 5.57226562 0.00323486 C7.53938871 0.00255298 9.50651403 0.00440781 11.47363281 0.00857544 C14.49581932 0.01392358 17.51785721 0.00863071 20.54003906 0.00222778 C22.44628939 0.00288856 24.35253963 0.00416972 26.25878906 0.00613403 C27.16918945 0.0041098 28.07958984 0.00208557 29.01757812 0 C35.39383938 0.02399685 35.39383938 0.02399685 36.50878906 1.13894653 C36.58122959 3.15858852 36.59256094 5.18061777 36.57128906 7.20144653 C36.56226563 8.3061731 36.55324219 9.41089966 36.54394531 10.54910278 C36.53234375 11.40375122 36.52074219 12.25839966 36.50878906 13.13894653 C30.40324196 13.16359167 24.29772355 13.18178024 18.19213867 13.19387817 C16.1133575 13.19891942 14.0345799 13.20575228 11.95581055 13.21438599 C8.97476321 13.22646076 5.99376257 13.23217677 3.01269531 13.23660278 C1.60957848 13.24434471 1.60957848 13.24434471 0.17811584 13.25224304 C-1.11310936 13.25235634 -1.11310936 13.25235634 -2.43041992 13.25247192 C-3.19208969 13.25469254 -3.95375946 13.25691315 -4.73851013 13.25920105 C-6.49121094 13.13894653 -6.49121094 13.13894653 -7.49121094 12.13894653 C-7.58972265 10.3077877 -7.62093723 8.4727472 -7.61621094 6.63894653 C-7.61878906 5.63863403 -7.62136719 4.63832153 -7.62402344 3.60769653 C-7.35841354 -1.3295227 -4.22039088 0.0158833 0 0 Z " fill="#ACC1ED" transform="translate(209.4912109375,194.86105346679688)"/>
<path d="M0 0 C19.8 0 39.6 0 60 0 C60 1.98 60 3.96 60 6 C39.87 6 19.74 6 -1 6 C-0.67 4.02 -0.34 2.04 0 0 Z " fill="#6584BF" transform="translate(157,149)"/>
<path d="M0 0 C29.7 0 59.4 0 90 0 C90 5.94 90 11.88 90 18 C81.09 18 72.18 18 63 18 C63 18.66 63 19.32 63 20 C60.7272325 21.49524178 58.4320057 22.78399715 56 24 C57.40680255 20.60022717 58.84026744 18.89657685 62 17 C64.84082031 16.65942383 64.84082031 16.65942383 68.078125 16.70703125 C69.23828125 16.71669922 70.3984375 16.72636719 71.59375 16.73632812 C72.8003125 16.76146484 74.006875 16.78660156 75.25 16.8125 C77.08304688 16.83280273 77.08304688 16.83280273 78.953125 16.85351562 C81.96893821 16.88885719 84.98452477 16.9426635 88 17 C88 12.05 88 7.1 88 2 C59.29 2 30.58 2 1 2 C1 12.89 1 23.78 1 35 C2.32 35 3.64 35 5 35 C4.67 35.66 4.34 36.32 4 37 C2.68 36.67 1.36 36.34 0 36 C0 24.12 0 12.24 0 0 Z " fill="#809DD3" transform="translate(146,142)"/>
<path d="M0 0 C32.01 0 64.02 0 97 0 C97 0.66 97 1.32 97 2 C65.65 2 34.3 2 2 2 C2 8.6 2 15.2 2 22 C1.34 22 0.68 22 0 22 C0 14.74 0 7.48 0 0 Z " fill="#032B84" transform="translate(157,116)"/>
<path d="M0 0 C0.66 0 1.32 0 2 0 C2 32.67 2 65.34 2 99 C-1.98042908 99.99510727 -5.1653166 100.10032114 -9.25 100.0625 C-10.51328125 100.05347656 -11.7765625 100.04445313 -13.078125 100.03515625 C-14.52445312 100.01775391 -14.52445312 100.01775391 -16 100 C-15.67 98.02 -15.34 96.04 -15 94 C-14.67 94 -14.34 94 -14 94 C-14 95.65 -14 97.3 -14 99 C-12.20759337 98.88610125 -10.41605165 98.75852313 -8.625 98.625 C-7.62726563 98.55539062 -6.62953125 98.48578125 -5.6015625 98.4140625 C-2.84491121 98.23636036 -2.84491121 98.23636036 -1 96 C-0.78196883 92.95819641 -0.68853762 90.00483428 -0.68115234 86.96044922 C-0.67110672 86.02381439 -0.6610611 85.08717957 -0.65071106 84.12216187 C-0.61974113 81.01634351 -0.60280565 77.91061187 -0.5859375 74.8046875 C-0.56723695 72.65519456 -0.54766439 70.50570905 -0.5272522 68.35623169 C-0.47580735 62.69110481 -0.43624786 57.0259541 -0.39910889 51.36071777 C-0.35914651 45.58286585 -0.30801884 39.80511413 -0.2578125 34.02734375 C-0.16090702 22.68496609 -0.0765492 11.34253202 0 0 Z " fill="#4B4E77" transform="translate(276,169)"/>
<path d="M0 0 C2.475 0.495 2.475 0.495 5 1 C5 2.32 5 3.64 5 5 C5.66 5 6.32 5 7 5 C7 37.01 7 69.02 7 102 C6.34 102 5.68 102 5 102 C5 70.32 5 38.64 5 6 C3.68 5.34 2.36 4.68 1 4 C0.25 1.875 0.25 1.875 0 0 Z " fill="#002881" transform="translate(273,163)"/>
<path d="M0 0 C15.51 0 31.02 0 47 0 C49.38979311 4.77958622 48 10.65626015 48 16 C32.16 16 16.32 16 0 16 C0 10.72 0 5.44 0 0 Z M2 3 C1.90148829 4.83115883 1.87027371 6.66619933 1.875 8.5 C1.87242187 9.5003125 1.86984375 10.500625 1.8671875 11.53125 C1.72129618 13.94399622 1.72129618 13.94399622 3 15 C4.35094982 15.09268999 5.70667091 15.11747326 7.06079102 15.11352539 C8.35201622 15.11341209 8.35201622 15.11341209 9.66932678 15.11329651 C11.07244362 15.10555458 11.07244362 15.10555458 12.50390625 15.09765625 C13.93342873 15.09553383 13.93342873 15.09553383 15.39183044 15.09336853 C18.44875165 15.08775152 21.50560077 15.07519616 24.5625 15.0625 C26.62955624 15.05748719 28.69661362 15.05292391 30.76367188 15.04882812 C35.84247588 15.03777656 40.9212257 15.02050055 46 15 C46.02686553 13.02090602 46.04633375 11.04171029 46.0625 9.0625 C46.07410156 7.96035156 46.08570313 6.85820312 46.09765625 5.72265625 C46.31262571 3.08552366 46.31262571 3.08552366 45 2 C41.90918535 1.8988308 38.84117445 1.86031442 35.75 1.8671875 C34.82155273 1.86623077 33.89310547 1.86527405 32.93652344 1.86428833 C30.96940035 1.86360645 29.00227504 1.86546128 27.03515625 1.86962891 C24.01296974 1.87497705 20.99093185 1.86968418 17.96875 1.86328125 C16.06249967 1.86394203 14.15624943 1.86522319 12.25 1.8671875 C11.33959961 1.86516327 10.42919922 1.86313904 9.49121094 1.86105347 C5.42336322 1.46108668 5.42336322 1.46108668 2 3 Z " fill="#E19051" transform="translate(200,193)"/>
<path d="M0 0 C31.68 0.33 63.36 0.66 96 1 C96 2.65 96 4.3 96 6 C95.34 6.33 94.68 6.66 94 7 C94 5.35 94 3.7 94 2 C63.64 2 33.28 2 2 2 C2 14.21 2 26.42 2 39 C1.34 39 0.68 39 0 39 C0 26.13 0 13.26 0 0 Z " fill="#002B80" transform="translate(143,139)"/>
<path d="M0 0 C19.47 0 38.94 0 59 0 C59 0.99 59 1.98 59 3 C39.53 3 20.06 3 0 3 C0 2.01 0 1.02 0 0 Z " fill="#0A3585" transform="translate(157,151)"/>
<path d="M0 0 C11.55 0 23.1 0 35 0 C35 1.65 35 3.3 35 5 C23.45 5 11.9 5 0 5 C0 3.35 0 1.7 0 0 Z " fill="#295094" transform="translate(157,162)"/>
<path d="M0 0 C0.33 0 0.66 0 1 0 C1 7.26 1 14.52 1 22 C5.62 22 10.24 22 15 22 C15 29.26 15 36.52 15 44 C18.465 44.495 18.465 44.495 22 45 C22.33 45.99 22.66 46.98 23 48 C21.35 47.67 19.7 47.34 18 47 C18 47.66 18 48.32 18 49 C17.01 49 16.02 49 15 49 C15 57.25 15 65.5 15 74 C14.01 74 13.02 74 12 74 C11.97097004 69.75001434 11.95319113 65.50005419 11.9375 61.25 C11.92912109 60.0434375 11.92074219 58.836875 11.91210938 57.59375 C11.90888672 56.43359375 11.90566406 55.2734375 11.90234375 54.078125 C11.89710693 53.00981445 11.89187012 51.94150391 11.88647461 50.84082031 C11.98623787 48.34437878 12.36404298 46.39148858 13 44 C13.14298131 42.3413488 13.24541225 40.6789131 13.31640625 39.015625 C13.35830078 38.08105469 13.40019531 37.14648438 13.44335938 36.18359375 C13.50233398 34.73146484 13.50233398 34.73146484 13.5625 33.25 C13.60568359 32.26644531 13.64886719 31.28289062 13.69335938 30.26953125 C13.79921949 27.84651073 13.90009312 25.42327328 14 23 C9.38 23 4.76 23 0 23 C0 15.41 0 7.82 0 0 Z " fill="#214890" transform="translate(255,116)"/>
<path d="M0 0 C3.63 0 7.26 0 11 0 C11 15.84 11 31.68 11 48 C11.99 48.33 12.98 48.66 14 49 C12.02 49.495 12.02 49.495 10 50 C8.81304582 47.62609164 8.87924167 46.19755049 8.88647461 43.55029297 C8.88655014 42.62948944 8.88662567 41.70868591 8.88670349 40.75997925 C8.89186478 39.76410797 8.89702606 38.76823669 8.90234375 37.7421875 C8.9037587 36.72399933 8.90517365 35.70581116 8.90663147 34.6567688 C8.912241 31.39614965 8.92479512 28.13559849 8.9375 24.875 C8.94251377 22.66796974 8.94707689 20.46093841 8.95117188 18.25390625 C8.96221352 12.83591419 8.97896095 7.41796195 9 2 C6.36 2 3.72 2 1 2 C1 7.94 1 13.88 1 20 C0.34 20 -0.32 20 -1 20 C-1.02888514 16.85418577 -1.04675923 13.70840531 -1.0625 10.5625 C-1.07087891 9.66466797 -1.07925781 8.76683594 -1.08789062 7.84179688 C-1.09111328 6.98779297 -1.09433594 6.13378906 -1.09765625 5.25390625 C-1.10551147 4.06776733 -1.10551147 4.06776733 -1.11352539 2.85766602 C-1 1 -1 1 0 0 Z " fill="#9C6957" transform="translate(256,142)"/>
<path d="M0 0 C1.32 0 2.64 0 4 0 C6.03383352 3.05075029 6.24936221 3.6215043 6.24050903 7.04325867 C6.24325836 7.8635556 6.24600769 8.68385254 6.24884033 9.52900696 C6.24164978 10.42524277 6.23445923 11.32147858 6.22705078 12.24487305 C6.22734283 13.19140747 6.22763489 14.13794189 6.22793579 15.11315918 C6.22654091 18.24610518 6.21097217 21.37881423 6.1953125 24.51171875 C6.19158294 26.68219371 6.1887357 28.85267034 6.18673706 31.02314758 C6.17909617 36.73931517 6.15944371 42.45538132 6.1373291 48.17150879 C6.11688053 54.00299711 6.10773746 59.8345018 6.09765625 65.66601562 C6.07619829 77.11072168 6.0420568 88.55535241 6 100 C5.67 100 5.34 100 5 100 C4.505 52.48 4.505 52.48 4 4 C3.67 4 3.34 4 3 4 C2.67 10.6 2.34 17.2 2 24 C1.34 24.33 0.68 24.66 0 25 C0 16.75 0 8.5 0 0 Z " fill="#B97347" transform="translate(270,165)"/>
<path d="M0 0 C23.43 0 46.86 0 71 0 C68.25492315 2.74507685 66.68242934 2.26834654 62.83789062 2.30297852 C61.54314819 2.31962051 60.24840576 2.33626251 58.91442871 2.35340881 C57.49503618 2.3619704 56.07564327 2.37046801 54.65625 2.37890625 C53.2065722 2.39507565 51.75690534 2.41225506 50.30725098 2.43040466 C46.4874578 2.47614537 42.66765014 2.51092169 38.84771729 2.54260254 C32.73292755 2.59442683 26.61829879 2.65955918 20.50370789 2.73081779 C18.36434345 2.75368612 16.2249995 2.76993518 14.08557129 2.78553772 C12.14345764 2.80577248 12.14345764 2.80577248 10.16210938 2.82641602 C9.01786499 2.83592789 7.87362061 2.84543976 6.69470215 2.85523987 C4.03014028 2.81885069 4.03014028 2.81885069 2 4 C1.34 3.67 0.68 3.34 0 3 C0 2.01 0 1.02 0 0 Z " fill="#8B9ABD" transform="translate(204,272)"/>
<path d="M0 0 C0.66 0 1.32 0 2 0 C2 21.12 2 42.24 2 64 C-0.64 64 -3.28 64 -6 64 C-5.67 63.34 -5.34 62.68 -5 62 C-3.35 62 -1.7 62 0 62 C0 41.54 0 21.08 0 0 Z " fill="#05358A" transform="translate(267,198)"/>
<path d="M0 0 C0.99 0 1.98 0 3 0 C2.66666667 1.66666667 2.33333333 3.33333333 2 5 C1.7834375 6.36125 1.7834375 6.36125 1.5625 7.75 C1.376875 8.4925 1.19125 9.235 1 10 C0.01 10.495 0.01 10.495 -1 11 C-1.02920143 15.18748519 -1.04686646 19.37494391 -1.0625 23.5625 C-1.07087891 24.74392578 -1.07925781 25.92535156 -1.08789062 27.14257812 C-1.10392999 32.86863072 -1.0510705 38.36394482 0 44 C-2.65613616 42.67193192 -2.93232069 41.77596622 -4 39 C-6.48854009 26.05959153 -6.23420938 11.81789256 0 0 Z " fill="#F38E32" transform="translate(101,223)"/>
<path d="M0 0 C16.5 0 33 0 50 0 C49.67 0.99 49.34 1.98 49 3 C24.745 2.505 24.745 2.505 0 2 C0 1.34 0 0.68 0 0 Z " fill="#D2D6E3" transform="translate(135,273)"/>
<path d="M0 0 C5.28 0 10.56 0 16 0 C16 6.93 16 13.86 16 21 C15.67 21 15.34 21 15 21 C15 14.73 15 8.46 15 2 C8.565 2.495 8.565 2.495 2 3 C0.81304447 6.56086658 0.64904582 9.97331024 0.4375 13.6875 C0.39431641 14.38939453 0.35113281 15.09128906 0.30664062 15.81445312 C0.2008264 17.54275206 0.09993419 19.2713511 0 21 C-0.33 21 -0.66 21 -1 21 C-1.0270203 18.24993392 -1.04684883 15.50013454 -1.0625 12.75 C-1.07087891 11.97269531 -1.07925781 11.19539062 -1.08789062 10.39453125 C-1.09111328 9.64042969 -1.09433594 8.88632813 -1.09765625 8.109375 C-1.10289307 7.41811523 -1.10812988 6.72685547 -1.11352539 6.01464844 C-1 4 -1 4 0 0 Z " fill="#033386" transform="translate(253,139)"/>
<path d="M0 0 C0.33 0 0.66 0 1 0 C1.01981934 0.72590332 1.03963867 1.45180664 1.06005859 2.19970703 C1.1556819 5.50848475 1.26521007 8.8166633 1.375 12.125 C1.42140625 13.83816406 1.42140625 13.83816406 1.46875 15.5859375 C1.50742188 16.69453125 1.54609375 17.803125 1.5859375 18.9453125 C1.6173584 19.96125488 1.6487793 20.97719727 1.68115234 22.02392578 C1.90264789 25.09543908 1.90264789 25.09543908 3.08837891 28.25341797 C4 31 4 31 3 33 C-1.64686134 26.53480161 -1.08114821 19.39654821 -1.125 11.75 C-1.12975342 11.05221436 -1.13450684 10.35442871 -1.1394043 9.63549805 C-1.12849454 6.28216225 -1.0409154 3.20535852 0 0 Z " fill="#F8C094" transform="translate(97,234)"/>
<path d="M0 0 C0.6084375 0.144375 1.216875 0.28875 1.84375 0.4375 C10.98762833 2.3738507 21.79650062 3.70540519 30.859375 0.921875 C34 0 34 0 36 1 C35 2 35 2 31.9375 2.0625 C30.968125 2.041875 29.99875 2.02125 29 2 C29 2.66 29 3.32 29 4 C25.29181703 4.08756305 21.58390237 4.14058015 17.875 4.1875 C16.30492187 4.22520508 16.30492187 4.22520508 14.703125 4.26367188 C8.94528536 4.31833491 4.86485368 4.20676341 0 1 C0 0.67 0 0.34 0 0 Z " fill="#F9CBA5" transform="translate(134,286)"/>
<path d="M0 0 C0.33 0 0.66 0 1 0 C1.06058594 1.24136719 1.12117188 2.48273438 1.18359375 3.76171875 C1.26803623 5.40365577 1.35268236 7.04558232 1.4375 8.6875 C1.47681641 9.50412109 1.51613281 10.32074219 1.55664062 11.16210938 C1.76898003 15.19655811 2.04447922 19.05747309 3 23 C3.66 23 4.32 23 5 23 C5.33 25.31 5.66 27.62 6 30 C2.07280076 27.38186717 1.07578774 24.43089504 0 20 C-0.32790029 16.48610371 -0.28740874 13.02498542 -0.1875 9.5 C-0.17396484 8.5821875 -0.16042969 7.664375 -0.14648438 6.71875 C-0.11148097 4.47853197 -0.06238869 2.23959406 0 0 Z " fill="#F8C497" transform="translate(108,238)"/>
<path d="M0 0 C1.37432457 3.81756824 0.67975039 7.07255329 0 11 C3.3 10.67 6.6 10.34 10 10 C7.73030256 12.26969744 6.02604513 12.99131829 3 14 C1.68 14 0.36 14 -1 14 C-1.02694851 12.04174127 -1.04637218 10.08337774 -1.0625 8.125 C-1.07410156 7.03445312 -1.08570312 5.94390625 -1.09765625 4.8203125 C-1 2 -1 2 0 0 Z " fill="#676988" transform="translate(129,182)"/>
<path d="M0 0 C0.33 0.66 0.66 1.32 1 2 C-0.98 2.33 -2.96 2.66 -5 3 C-3.03177114 4.96822886 0.34808709 4.66248381 3 5 C3 5.33 3 5.66 3 6 C-0.63 6 -4.26 6 -8 6 C-8 4.35 -8 2.7 -8 1 C-5.36 0.67 -2.72 0.34 0 0 Z " fill="#DE7F30" transform="translate(270,262)"/>
<path d="M0 0 C0.33 0 0.66 0 1 0 C1.02505615 0.56509277 1.0501123 1.13018555 1.07592773 1.71240234 C1.19179956 4.26683742 1.31456537 6.8208955 1.4375 9.375 C1.47681641 10.26445312 1.51613281 11.15390625 1.55664062 12.0703125 C1.59853516 12.92109375 1.64042969 13.771875 1.68359375 14.6484375 C1.72025146 15.43395996 1.75690918 16.21948242 1.79467773 17.02880859 C1.890891 19.07523496 1.890891 19.07523496 3 21 C2.34 21.66 1.68 22.32 1 23 C0.01 21.35 -0.98 19.7 -2 18 C-1.34 18 -0.68 18 0 18 C0 12.06 0 6.12 0 0 Z " fill="#2B457C" transform="translate(196,192)"/>
<path d="M0 0 C0.928125 0.0825 1.85625 0.165 2.8125 0.25 C-0.51057692 4.18846154 -0.51057692 4.18846154 -3.9375 4.5 C-4.68 4.4175 -5.4225 4.335 -6.1875 4.25 C-4.36434338 1.00883268 -3.82500054 0.30000004 0 0 Z " fill="#F39540" transform="translate(177.1875,292.75)"/>
<path d="M0 0 C3 1 3 1 5 2 C5 2.66 5 3.32 5 4 C5.66 4 6.32 4 7 4 C6.67 5.32 6.34 6.64 6 8 C4.9970458 6.85675161 3.99770973 5.71032809 3 4.5625 C2.443125 3.92441406 1.88625 3.28632813 1.3125 2.62890625 C0 1 0 1 0 0 Z " fill="#F39237" transform="translate(109,280)"/>
<path d="M0 0 C2.65613616 1.32806808 2.93232069 2.22403378 4 5 C4.45362392 7.66567762 4.7305884 10.30588399 5 13 C4.34 13 3.68 13 3 13 C3 11.02 3 9.04 3 7 C2.34 7 1.68 7 1 7 C0.67 4.69 0.34 2.38 0 0 Z " fill="#9F6951" transform="translate(201,221)"/>
<path d="M0 0 C2.97 0.495 2.97 0.495 6 1 C6.33 1.99 6.66 2.98 7 4 C5.35 3.67 3.7 3.34 2 3 C2 3.66 2 4.32 2 5 C1.01 4.67 0.02 4.34 -1 4 C-0.67 2.68 -0.34 1.36 0 0 Z " fill="#4665A0" transform="translate(271,160)"/>
<path d="M0 0 C0.66 0.33 1.32 0.66 2 1 C-0.36292656 3.52588702 -1.66462511 4.88820837 -5 6 C-4.75 4.125 -4.75 4.125 -4 2 C-2.0625 0.6875 -2.0625 0.6875 0 0 Z " fill="#355597" transform="translate(135,178)"/>
<path d="M0 0 C0 0.99 0 1.98 0 3 C-0.99 3.495 -0.99 3.495 -2 4 C-1.34 4.66 -0.68 5.32 0 6 C-1.65 6.33 -3.3 6.66 -5 7 C-4.75 4.625 -4.75 4.625 -4 2 C-1.9375 0.6875 -1.9375 0.6875 0 0 Z " fill="#E38030" transform="translate(270,190)"/>
<path d="M0 0 C2.475 0.495 2.475 0.495 5 1 C4.67 2.65 4.34 4.3 4 6 C2.62437146 4.71034824 1.29233607 3.37310707 0 2 C0 1.34 0 0.68 0 0 Z " fill="#133C83" transform="translate(273,163)"/>
</svg>
